<svg xmlns="http://www.w3.org/2000/svg">
  <symbol id="order-move" viewBox="0 0 24 24">
    <path d="M5 19 19 5" fill="none" stroke="currentColor" stroke-width="2.6" stroke-linecap="round"/>
    <path d="M11 5h8v8" fill="none" stroke="currentColor" stroke-width="2.6" stroke-linecap="round" stroke-linejoin="round"/>
  </symbol>
  <symbol id="order-retreat" viewBox="0 0 24 24">
    <path d="M18 5c-6 0-10 3.4-10 9v4" fill="none" stroke="currentColor" stroke-width="2.4" stroke-linecap="round"/>
    <path d="M4 14l4 4 4-4" fill="none" stroke="currentColor" stroke-width="2.4" stroke-linecap="round" stroke-linejoin="round"/>
  </symbol>
  <symbol id="order-support" viewBox="0 0 24 24">
    <path d="M12 3 19 6v5.2c0 4.3-2.8 7.5-7 9.8-4.2-2.3-7-5.5-7-9.8V6l7-3Z" fill="none" stroke="currentColor" stroke-width="2.2" stroke-linejoin="round"/>
    <path d="M8 12h8M12 8v8" fill="none" stroke="currentColor" stroke-width="2.4" stroke-linecap="round"/>
  </symbol>
  <symbol id="order-convoy" viewBox="0 0 24 24">
    <path d="M5 14h14l-2 4H7l-2-4Z" fill="none" stroke="currentColor" stroke-width="2.2" stroke-linejoin="round"/>
    <path d="M8 14V8h6l2 3v3" fill="none" stroke="currentColor" stroke-width="2.2" stroke-linejoin="round"/>
    <path d="M4 20c1.2-1 2.4-1 3.6 0s2.4 1 3.6 0 2.4-1 3.6 0 2.4 1 3.6 0" fill="none" stroke="currentColor" stroke-width="1.9" stroke-linecap="round"/>
  </symbol>
  <symbol id="order-hold" viewBox="0 0 24 24">
    <path d="M12 4a8 8 0 1 0 0 16 8 8 0 0 0 0-16Z" fill="none" stroke="currentColor" stroke-width="2.3"/>
    <path d="M8 12h8" fill="none" stroke="currentColor" stroke-width="2.8" stroke-linecap="round"/>
  </symbol>
  <symbol id="order-build" viewBox="0 0 24 24">
    <path d="M5 19h14M7 19V9l5-4 5 4v10" fill="none" stroke="currentColor" stroke-width="2.2" stroke-linecap="round" stroke-linejoin="round"/>
    <path d="M12 10v6M9 13h6" fill="none" stroke="currentColor" stroke-width="2.5" stroke-linecap="round"/>
  </symbol>
  <symbol id="order-disband" viewBox="0 0 24 24">
    <path d="M6 6l12 12M18 6 6 18" fill="none" stroke="currentColor" stroke-width="2.7" stroke-linecap="round"/>
    <path d="M8 3h8l3 3v12l-3 3H8l-3-3V6l3-3Z" fill="none" stroke="currentColor" stroke-width="1.8" stroke-linejoin="round"/>
  </symbol>
  <symbol id="order-waive" viewBox="0 0 24 24">
    <path d="M6 12a6 6 0 0 1 12 0 6 6 0 0 1-12 0Z" fill="none" stroke="currentColor" stroke-width="2.3"/>
    <path d="M8 16 16 8" fill="none" stroke="currentColor" stroke-width="2.1" stroke-linecap="round"/>
  </symbol>
  <symbol id="order-clear" viewBox="0 0 24 24">
    <path d="M7 7a7 7 0 1 1-1.6 7.3" fill="none" stroke="currentColor" stroke-width="2.3" stroke-linecap="round"/>
    <path d="M4 9h5V4" fill="none" stroke="currentColor" stroke-width="2.3" stroke-linecap="round" stroke-linejoin="round"/>
  </symbol>
  <symbol id="order-cancel" viewBox="0 0 24 24">
    <path d="M6.5 6.5 17.5 17.5M17.5 6.5 6.5 17.5" fill="none" stroke="currentColor" stroke-width="2.8" stroke-linecap="round"/>
  </symbol>
  <symbol id="order-default" viewBox="0 0 24 24">
    <path d="M12 5v7l4 3" fill="none" stroke="currentColor" stroke-width="2.4" stroke-linecap="round" stroke-linejoin="round"/>
    <path d="M12 21a9 9 0 1 0-8.2-5.3" fill="none" stroke="currentColor" stroke-width="2.1" stroke-linecap="round"/>
  </symbol>
</svg>
